<?xml version="1.0" encoding="UTF-8"?>
<!DOCTYPE svg PUBLIC "-//W3C//DTD SVG 1.1//EN" "http://www.w3.org/Graphics/SVG/1.1/DTD/svg11.dtd">
<!-- Creator: CorelDRAW X7 -->
<?xml-stylesheet href="fsdfsfs-sm.css" type="text/css"?>
<svg xmlns="http://www.w3.org/2000/svg" xml:space="preserve" width="300px" height="300px" version="1.1" style="shape-rendering:geometricPrecision; text-rendering:geometricPrecision; image-rendering:optimizeQuality; fill-rule:evenodd; clip-rule:evenodd"
viewBox="0 0 30000 30000"
 xmlns:xlink="http://www.w3.org/1999/xlink">
 <g id="Layer_x0020_1">
  <metadata id="CorelCorpID_0Corel-Layer"/>
  <path class="fil0" d="M100 100l30000 0 0 29800c0,110 -90,200 -200,200l-29600 0c-110,0 -200,-90 -200,-200l0 -29800z"/>
  <g id="_2659147641088">
   <g>
    <g>
     <path class="fil0 str0" d="M16880 17837l367 -367c233,-233 615,-233 848,0l3112 3112c334,334 334,880 0,1215l0 0c-335,334 -881,334 -1215,0l-3112 -3112c-233,-233 -233,-615 0,-848z"/>
     <path class="fil0 str1" d="M19730 21735c325,-215 650,-430 878,-663 227,-233 356,-485 484,-737"/>
    </g>
    <g>
     <line class="fil0 str2" x1="18369" y1="18053" x2="20228" y2= "19913" />
     <line class="fil0 str2" x1="19146" y1="19114" x2="20419" y2= "20386" />
     <line class="fil0 str2" x1="18440" y1="18689" x2="19288" y2= "19537" />
     <line class="fil0 str2" x1="17874" y1="17841" x2="18722" y2= "18689" />
    </g>
   </g>
   <g>
    <line class="fil0 str3" x1="15364" y1="15967" x2="17061" y2= "17664" />
    <g>
     <circle class="fil0 str0" transform="matrix(0.707107 -0.707107 0.707107 0.707107 12410 13026.4)" r="4141"/>
     <g>
      <circle class="fil1 str4" transform="matrix(1.23129 -1.23129 1.23129 1.23129 11859.7 12010.6)" r="1450"/>
      <ellipse class="fil2 str4" transform="matrix(-1.23129 -1.23129 1.23129 -1.23129 12650.2 11047.6)" rx="375" ry="300"/>
     </g>
    </g>
   </g>
  </g>
 </g>
</svg>
