<?xml version="1.0" encoding="UTF-8"?>
<!DOCTYPE svg PUBLIC "-//W3C//DTD SVG 1.1//EN" "http://www.w3.org/Graphics/SVG/1.1/DTD/svg11.dtd">
<!-- Creator: CorelDRAW X7 -->
<svg xmlns="http://www.w3.org/2000/svg" xml:space="preserve" width="24px" height="24px" version="1.1" style="shape-rendering:geometricPrecision; text-rendering:geometricPrecision; image-rendering:optimizeQuality; fill-rule:evenodd; clip-rule:evenodd"
viewBox="0 0 24 24"
 xmlns:xlink="http://www.w3.org/1999/xlink">
 <defs>
  <style type="text/css">
   <![CDATA[
    .str0 {stroke:#4D4D4D;stroke-width:0.666709}
    .str1 {stroke:white;stroke-width:0.666709}
    .fil0 {fill:none}
    .fil1 {fill:#4D4D4D}
   ]]>
  </style>
 </defs>
 <g id="Layer_x0020_1">
  <metadata id="CorelCorpID_0Corel-Layer"/>
  <rect class="fil0" width="24" height="24"/>
  <g id="_1951830748160">
   <path class="fil1 str0" d="M11 7l3 0c0,0 0,0 0,1l0 1c0,0 0,0 0,0l2 0c1,0 1,1 1,1l0 6c0,0 0,1 -1,1l-8 0c-1,0 -1,-1 -1,-1l0 -6c0,0 0,-1 1,-1l3 0c0,0 0,0 0,0l0 -1c0,-1 0,-1 0,-1z"/>
   <circle class="fil0 str1" cx="13" cy="13" r="2"/>
  </g>
 </g>
</svg>
