<?xml version="1.0" encoding="UTF-8"?>
<!DOCTYPE svg PUBLIC "-//W3C//DTD SVG 1.1//EN" "http://www.w3.org/Graphics/SVG/1.1/DTD/svg11.dtd">
<!-- Creator: CorelDRAW X7 -->
<svg xmlns="http://www.w3.org/2000/svg" xml:space="preserve" width="48px" height="48px" version="1.1" style="shape-rendering:geometricPrecision; text-rendering:geometricPrecision; image-rendering:optimizeQuality; fill-rule:evenodd; clip-rule:evenodd"
viewBox="0 0 48 48"
 xmlns:xlink="http://www.w3.org/1999/xlink">
 <defs>
  <style type="text/css">
   <![CDATA[
    .str0 {stroke:#5D5C5C;stroke-width:1.99961;stroke-linejoin:round}
    .fil0 {fill:none}
   ]]>
  </style>
 </defs>
 <g id="Layer_x0020_1">
  <metadata id="CorelCorpID_0Corel-Layer"/>
  <rect class="fil0" width="48.1189" height="48"/>
  <path class="fil0 str0" d="M14 31l7 -7 -7 -7c0,-1 0,-2 0,-3l0 0c1,0 2,0 3,0l7 7 7 -7c1,0 2,0 3,0l0 0c0,1 0,2 0,3l-7 7 7 7c0,1 0,2 0,3l0 0c-1,1 -2,1 -3,0l-7 -7 -7 7c-1,1 -2,1 -3,0l0 0c0,-1 0,-2 0,-3z"/>
 </g>
</svg>
