<?xml version="1.0" encoding="UTF-8"?>
<!DOCTYPE svg PUBLIC "-//W3C//DTD SVG 1.1//EN" "http://www.w3.org/Graphics/SVG/1.1/DTD/svg11.dtd">
<!-- Creator: CorelDRAW X7 -->
<svg xmlns="http://www.w3.org/2000/svg" xml:space="preserve" width="48px" height="48px" version="1.1" shape-rendering="geometricPrecision" text-rendering="geometricPrecision" image-rendering="optimizeQuality" fill-rule="evenodd" clip-rule="evenodd"
viewBox="0 0 4800 4800"
 xmlns:xlink="http://www.w3.org/1999/xlink">
 <g id="Layer_x0020_1">
  <metadata id="CorelCorpID_0Corel-Layer"/>
  <rect fill="none" x="1119" y="872" width="2583" height="3043"/>
  <path fill="none" stroke="#666666" stroke-width="199.961" d="M3000 3142c59,0 140,-58 108,-108l-179 -283 179 -685c103,-396 -334,-744 -743,-744l0 0c-409,0 -848,348 -743,744 59,222 118,444 177,666l-177 302c-30,51 48,108 108,108l1270 0z"/>
  <path fill="none" stroke="#666666" stroke-width="199.961" d="M2494 3410c4,16 6,34 6,51 0,104 -72,188 -161,188 -90,0 -162,-84 -162,-188 0,-18 2,-35 7,-52"/>
  <path fill="none" stroke="#666666" stroke-width="199.961" d="M1658 1123c-312,95 -590,604 -493,881l112 319"/>
  <path fill="none" stroke="#666666" stroke-width="199.961" d="M3070 1123c312,95 590,604 493,881l-112 319"/>
 </g>
</svg>
