<?xml version="1.0" encoding="UTF-8"?>
<!DOCTYPE svg PUBLIC "-//W3C//DTD SVG 1.1//EN" "http://www.w3.org/Graphics/SVG/1.1/DTD/svg11.dtd">
<!-- Creator: CorelDRAW X7 -->
<svg xmlns="http://www.w3.org/2000/svg" xml:space="preserve" width="24px" height="24px" version="1.1" style="shape-rendering:geometricPrecision; text-rendering:geometricPrecision; image-rendering:optimizeQuality; fill-rule:evenodd; clip-rule:evenodd"
viewBox="0 0 24 24"
 xmlns:xlink="http://www.w3.org/1999/xlink">
 <defs>
  <style type="text/css">
   <![CDATA[
    .str0 {stroke:black;stroke-width:0.666709}
    .str1 {stroke:#4D4D4D;stroke-width:0.666709}
    .str2 {stroke:white;stroke-width:0.666709}
    .fil0 {fill:none}
    .fil2 {fill:#4D4D4D}
    .fil1 {fill:#CCCCCC}
    .fil3 {fill:white}
   ]]>
  </style>
 </defs>
 <g id="Layer_x0020_1">
  <metadata id="CorelCorpID_0Corel-Layer"/>
  <rect class="fil0" width="24" height="24"/>
  <rect class="fil0 str0" x="7" y="7" width="9.09392" height="4.99994" rx="1" ry="1"/>
  <g>
   <path class="fil1" d="M5 16l3 -8 2 4 -3 4 -2 0zm1 -1c1,0 1,0 1,1 0,0 0,1 -1,1 -1,0 -1,-1 -1,-1 0,-1 0,-1 1,-1z"/>
   <path id="1" class="fil0 str0" d="M5 16l3 -8 2 4 -3 4m-1 -1c1,0 1,0 1,1 0,0 0,1 -1,1 -1,0 -1,-1 -1,-1 0,-1 0,-1 1,-1z"/>
  </g>
  <g>
   <path class="fil1" d="M19 16l-3 -8 -2 4 3 4 2 0zm-1 -1c-1,0 -1,0 -1,1 0,0 0,1 1,1 1,0 1,-1 1,-1 0,-1 0,-1 -1,-1z"/>
   <path id="1" class="fil0 str0" d="M19 16l-3 -8 -2 4 3 4m1 -1c-1,0 -1,0 -1,1 0,0 0,1 1,1 1,0 1,-1 1,-1 0,-1 0,-1 -1,-1z"/>
  </g>
  <path class="fil2 str1" d="M17 8l2 7c0,0 0,0 0,1 0,0 0,1 -1,1 0,0 -1,0 -1,-1 0,0 0,0 0,0l-3 -4 -4 0 -3 4c0,0 0,0 0,0 0,1 -1,1 -1,1 -1,0 -1,-1 -1,-1 0,-1 0,-1 0,-1l2 -7c0,0 1,0 1,0 0,-1 0,-1 0,-1l8 0c0,0 0,0 0,1l0 0 0 0c0,0 1,0 1,0z"/>
  <rect class="fil3 str2" x="9" y="9" width="1.12479" height="1.12479"/>
  <rect class="fil3 str2" x="15" y="9" width="1.12479" height="1.12479" rx="2" ry="2"/>
 </g>
</svg>
