<?xml version="1.0" encoding="UTF-8"?>
<!DOCTYPE svg PUBLIC "-//W3C//DTD SVG 1.1//EN" "http://www.w3.org/Graphics/SVG/1.1/DTD/svg11.dtd">
<!-- Creator: CorelDRAW X7 -->
<svg xmlns="http://www.w3.org/2000/svg" xml:space="preserve" width="130px" height="130px" version="1.1" style="shape-rendering:geometricPrecision; text-rendering:geometricPrecision; image-rendering:optimizeQuality; fill-rule:evenodd; clip-rule:evenodd"
viewBox="0 0 130 130"
 xmlns:xlink="http://www.w3.org/1999/xlink">
 <defs>
  <style type="text/css">
   <![CDATA[
    .fil1 {fill:#0D92A6}
    .fil0 {fill:white}
   ]]>
  </style>
 </defs>
 <g id="Layer_x0020_1">
  <metadata id="CorelCorpID_0Corel-Layer"/>
  <rect id="rect" class="fil0" x="52" y="38" width="29.5045" height="60.1679"/>
  <path id="eff_x0020_" class="fil1" d="M58 83c0,-5 0,-9 0,-14 0,-1 0,-1 -1,-1 -2,0 -3,0 -5,0 0,0 0,0 0,-1 0,-3 0,-6 0,-9 0,0 0,0 0,0 2,0 3,0 5,0 1,0 1,-1 1,-1 0,-3 0,-5 0,-7 0,-3 1,-5 2,-8 2,-2 5,-4 9,-4 3,0 7,0 10,0 1,0 1,0 1,1 0,3 0,6 0,9 0,0 0,0 -1,0 -2,0 -3,0 -5,0 -2,0 -4,1 -4,4 0,1 0,3 0,5 0,1 1,1 1,1 3,-1 5,0 8,-1 0,0 1,1 1,1 -1,3 -1,6 -1,9 0,1 -1,1 -1,1 -2,0 -4,0 -6,0 -2,0 -2,0 -2,1 0,10 0,19 0,28 0,1 0,1 -1,1 -3,0 -7,0 -10,0 -1,0 -1,0 -1,-1 0,-5 0,-9 0,-14z"/>
 </g>
</svg>
