<?xml version="1.0" encoding="UTF-8"?>
<!DOCTYPE svg PUBLIC "-//W3C//DTD SVG 1.1//EN" "http://www.w3.org/Graphics/SVG/1.1/DTD/svg11.dtd">
<!-- Creator: CorelDRAW X7 -->
<svg xmlns="http://www.w3.org/2000/svg" xml:space="preserve" width="0.48in" height="0.479992in" version="1.1" style="shape-rendering:geometricPrecision; text-rendering:geometricPrecision; image-rendering:optimizeQuality; fill-rule:evenodd; clip-rule:evenodd"
viewBox="0 0 480 480"
 xmlns:xlink="http://www.w3.org/1999/xlink">
 <defs>
  <style type="text/css">
   <![CDATA[
    .fil0 {fill:none}
    .fil1 {fill:#4D4D4D}
    .fil2 {fill:red}
   ]]>
  </style>
    <clipPath id="id0">
     <path d="M162 65l143 0 0 291 -143 0 0 -291z"/>
    </clipPath>
    <clipPath id="id1">
     <path d="M184 358l99 0 0 70 -99 0 0 -70z"/>
    </clipPath>
 </defs>
 <g id="Layer_x0020_1">
  <metadata id="CorelCorpID_0Corel-Layer"/>
  <rect class="fil0" x="-1" width="481" height="480"/>
  <g id="_2295558126528">
   <g style="clip-path:url(#id0)">
    <image x="162" y="65" width="143" height="291" xlink:href="logo-48px_Images\logo-48px_ImgID1.png"/>
   </g>
  </g>
  <path class="fil1" d="M291 124l2 -28c-1,-9 -11,-19 -21,-19l-81 0c-13,3 -17,9 -17,16l10 235c1,11 9,15 20,16l58 0c10,-2 19,-5 19,-17l5 -96 -48 0 0 25 14 2 0 56 -40 0 -2 -211 50 0 0 59 29 0 2 -38z"/>
  <g id="_2295558125664">
   <g style="clip-path:url(#id1)">
    <image x="184" y="358" width="98.126" height="70.1614" xlink:href="logo-48px_Images\logo-48px_ImgID2.png"/>
   </g>
  </g>
  <rect class="fil2" x="190" y="364" width="86.4345" height="58.4705" rx="5" ry="5"/>
 </g>
</svg>
