<?xml version="1.0" encoding="UTF-8"?>
<!DOCTYPE svg PUBLIC "-//W3C//DTD SVG 1.1//EN" "http://www.w3.org/Graphics/SVG/1.1/DTD/svg11.dtd">
<!-- Creator: CorelDRAW X7 -->
<svg xmlns="http://www.w3.org/2000/svg" xml:space="preserve" width="24px" height="24px" version="1.1" style="shape-rendering:geometricPrecision; text-rendering:geometricPrecision; image-rendering:optimizeQuality; fill-rule:evenodd; clip-rule:evenodd"
viewBox="0 0 24 24"
 xmlns:xlink="http://www.w3.org/1999/xlink">
 <defs>
  <style type="text/css">
   <![CDATA[
    .str2 {stroke:#4D4D4D;stroke-width:0.666709}
    .str1 {stroke:white;stroke-width:0.666709}
    .str0 {stroke:#4D4D4D;stroke-width:0.666709;stroke-linejoin:round}
    .fil0 {fill:none}
    .fil1 {fill:#4D4D4D}
   ]]>
  </style>
 </defs>
 <g id="Layer_x0020_1">
  <metadata id="CorelCorpID_0Corel-Layer"/>
  <rect class="fil0" width="24" height="24"/>
  <g id="_1586664357216">
   <polygon class="fil1 str0" points="12,7 8,7 5,10 12,17 19,10 16,7 12,7 "/>
   <polyline class="fil0 str1" points="11,7 9,10 12,17 "/>
   <polyline class="fil0 str1" points="13,7 15,10 12,17 "/>
   <polyline class="fil0 str1" points="19,10 15,10 9,10 5,10 "/>
   <polygon class="fil0 str2" points="8,7 12,7 16,7 19,10 12,17 5,10 "/>
   <polygon class="fil0 str2" points="11,7 12,7 13,7 16,7 19,10 12,16 12,17 12,16 5,10 8,7 "/>
  </g>
 </g>
</svg>
