<?xml version="1.0" encoding="UTF-8"?>
<!DOCTYPE svg PUBLIC "-//W3C//DTD SVG 1.1//EN" "http://www.w3.org/Graphics/SVG/1.1/DTD/svg11.dtd">
<!-- Creator: CorelDRAW X7 -->
<svg width="24px" height="24px" version="1.1" viewBox="0 0 2400 2400">
  <style type="text/css">
   <![CDATA[
    .priceStr1 {stroke:#4D4D4D;stroke-width:66.6709}
    .priceStr {stroke:#4D4D4D;stroke-width:66.6709;stroke-linecap:round}
    .priceFill {fill:none}
    .priceFill1{fill:#4D4D4D}
   ]]>
  </style>
  <polyline id="axis" class="priceFill priceStr" points="479,579 479,1829 1929,1829 "/>
   <path class="priceFill1 priceStr1" d="M743 1079l22 0c35,0 64,29 64,64l0 536 -150 0 0 -536c0,-35 28,-64 64,-64z"/>
   <path class="priceFill1 priceStr1" d="M1143 679l22 0c35,0 64,29 64,64l0 936 -150 0 0 -936c0,-35 29,-64 64,-64z"/>
   <path class="priceFill1 priceStr1" d="M1543 1304l22 0c35,0 64,29 64,64l0 311 -150 0 0 -311c0,-35 29,-64 64,-64z"/>
</svg>
