<?xml version="1.0" encoding="UTF-8"?>
<!DOCTYPE svg PUBLIC "-//W3C//DTD SVG 1.1//EN" "http://www.w3.org/Graphics/SVG/1.1/DTD/svg11.dtd">
<!-- Creator: CorelDRAW X7 -->
<svg xmlns="http://www.w3.org/2000/svg" xml:space="preserve" width="24px" height="24px" version="1.1" style="shape-rendering:geometricPrecision; text-rendering:geometricPrecision; image-rendering:optimizeQuality; fill-rule:evenodd; clip-rule:evenodd"
viewBox="0 0 2400000 2400000"
 xmlns:xlink="http://www.w3.org/1999/xlink">
 <defs>
  <style type="text/css">
   <![CDATA[
    .str0 {stroke:#5D5C5C;stroke-width:149972}
    .str1 {stroke:#5D5C5C;stroke-width:28800}
    .fil0 {fill:none}
    .fil2 {fill:none;fill-rule:nonzero}
    .fil1 {fill:#5D5C5C;fill-rule:nonzero}
   ]]>
  </style>
 </defs>
 <g id="Layer_x0020_1">
  <metadata id="CorelCorpID_0Corel-Layer"/>
  <rect class="fil0" width="2400000" height="2400000"/>
  <rect class="fil0 str0" x="431244" y="472608" width="1537512" height="1454762" rx="1218952" ry="1153347"/>
  <path class="fil1" d="M1185562 1581921c-20674,1777 -39760,2684 -57222,2306 -17688,-151 -34771,-1436 -51855,-3402 -16970,-2116 -33902,-5329 -50683,-9638 -16933,-4233 -35301,-9411 -55068,-15458 491,-25890 3023,-52271 7483,-79030 4460,-26910 10318,-55786 17651,-86475 34734,11263 65801,19086 93430,23546 27628,4460 53858,5518 78614,3402 35452,-3213 62400,-11415 80579,-24794 18029,-13380 26079,-32655 23887,-57411 -1928,-22110 -11754,-38173 -29405,-48491 -17839,-10167 -39042,-19238 -64176,-27100l-58469 -18557c-22111,-7332 -43352,-15874 -63497,-25474 -20144,-9827 -37795,-21921 -53102,-36737 -15194,-14816 -27817,-32655 -37984,-53480 -10016,-21052 -16403,-46375 -18898,-76309 -5556,-62438 6917,-113802 37418,-154054 30500,-40327 75061,-68296 133757,-84170l-8428 -95924c11074,-4649 22337,-7862 33562,-10016 11376,-1927 20825,-3364 28687,-4082 7823,-680 17650,-869 29404,-869 11755,0 23169,1247 34243,3893l8012 92712c25134,718 50646,3061 76347,7332 25852,4120 53291,9978 82507,17461 -680,47963 -10847,99667 -30274,155150 -25134,-8580 -49739,-15345 -73814,-20334 -24114,-5178 -54577,-6085 -91465,-2872 -9297,907 -18217,2154 -27099,4082 -8769,1814 -16592,4989 -23735,9448 -7144,4649 -12851,10545 -16744,17689 -4119,7143 -5556,16403 -4649,27817 1777,20485 10507,35263 26041,44372 15307,9108 31900,16063 49550,20863l61531 17121c24945,7105 48642,15534 70941,24945 22300,9486 42482,22110 60284,37644 17839,15685 32617,35452 44409,59527 11755,24114 19238,54237 22299,90407 5141,57600 -6085,108245 -33373,152088 -27288,43880 -69354,76686 -126236,98079l11036 125707c-10318,4459 -21203,7823 -32957,9826 -11603,2079 -21203,3553 -29065,4233 -7861,719 -17461,908 -28875,908 -11604,-189 -23207,-1437 -34810,-3893l-9789 -111988z"/>
  <path id="1" class="fil2 str1" d="M1185562 1581921c-20674,1777 -39760,2684 -57222,2306 -17688,-151 -34771,-1436 -51855,-3402 -16970,-2116 -33902,-5329 -50683,-9638 -16933,-4233 -35301,-9411 -55068,-15458 491,-25890 3023,-52271 7483,-79030 4460,-26910 10318,-55786 17651,-86475 34734,11263 65801,19086 93430,23546 27628,4460 53858,5518 78614,3402 35452,-3213 62400,-11415 80579,-24794 18029,-13380 26079,-32655 23887,-57411 -1928,-22110 -11754,-38173 -29405,-48491 -17839,-10167 -39042,-19238 -64176,-27100l-58469 -18557c-22111,-7332 -43352,-15874 -63497,-25474 -20144,-9827 -37795,-21921 -53102,-36737 -15194,-14816 -27817,-32655 -37984,-53480 -10016,-21052 -16403,-46375 -18898,-76309 -5556,-62438 6917,-113802 37418,-154054 30500,-40327 75061,-68296 133757,-84170l-8428 -95924c11074,-4649 22337,-7862 33562,-10016 11376,-1927 20825,-3364 28687,-4082 7823,-680 17650,-869 29404,-869 11755,0 23169,1247 34243,3893l8012 92712c25134,718 50646,3061 76347,7332 25852,4120 53291,9978 82507,17461 -680,47963 -10847,99667 -30274,155150 -25134,-8580 -49739,-15345 -73814,-20334 -24114,-5178 -54577,-6085 -91465,-2872 -9297,907 -18217,2154 -27099,4082 -8769,1814 -16592,4989 -23735,9448 -7144,4649 -12851,10545 -16744,17689 -4119,7143 -5556,16403 -4649,27817 1777,20485 10507,35263 26041,44372 15307,9108 31900,16063 49550,20863l61531 17121c24945,7105 48642,15534 70941,24945 22300,9486 42482,22110 60284,37644 17839,15685 32617,35452 44409,59527 11755,24114 19238,54237 22299,90407 5141,57600 -6085,108245 -33373,152088 -27288,43880 -69354,76686 -126236,98079l11036 125707c-10318,4459 -21203,7823 -32957,9826 -11603,2079 -21203,3553 -29065,4233 -7861,719 -17461,908 -28875,908 -11604,-189 -23207,-1437 -34810,-3893l-9789 -111988z"/>
 </g>
</svg>
