<svg xmlns="http://www.w3.org/2000/svg" xml:space="preserve" width="24px" height="24px" version="1.1" style="shape-rendering:geometricPrecision; text-rendering:geometricPrecision; image-rendering:optimizeQuality; fill-rule:evenodd; clip-rule:evenodd"
viewBox="0 0 2400000 2400000"
 xmlns:xlink="http://www.w3.org/1999/xlink">
 <defs>
  <style type="text/css">
   <![CDATA[
    .str0 {stroke:#5D5C5C;stroke-width:149972}
    .str0.active {stroke: #ea9955}
    .str1 {stroke:#5D5C5C;stroke-width:99968.5;stroke-linejoin:round}
    .str1.active {stroke: #ea9955;}
    .fil0 {fill:none}
    .fil1 {fill:white}
   ]]>
  </style>
 </defs>
  <rect ui-sref=".specs" ui-sref-active="active" class="fil0" width="2400000" height="2400000"/>
   <rect ui-sref=".specs" ui-sref-active="active" class="fil0 str0" x="1049991" y="399987" width="923376" height="1572888" rx="99993" ry="170329"/>
   <rect ui-sref=".specs" ui-sref-active="active" class="fil1" x="899981" y="532838" width="275036" height="1131288"/>
   <path ui-sref=".specs" ui-sref-active="active" class="fil0 str1" d="M899981 740674c22035,0 43578,2003 64479,5820l64252 -111344c36283,10582 71924,25587 106091,45316 39572,22866 74646,50457 104920,81714l-63118 109341c25701,31295 46186,66973 60170,105827l129411 0c8995,36699 13795,75061 13795,114520 0,45656 -6387,89839 -18293,131678l-126349 0c-14438,38665 -35339,74117 -61418,105147l65802 113953c-27288,26116 -58129,49474 -92296,69203 -39572,22828 -80996,39382 -123213,50003l-63874 -110627c-19616,3326 -39760,5103 -60359,5103 -19880,0 -39345,-1663 -58318,-4763l-63685 110287c-42180,-10621 -83641,-27175 -123175,-50003 -34205,-19729 -65008,-43087 -92296,-69203l64857 -112403c-26684,-31371 -48038,-67389 -62703,-106697l-126387 0c-11905,-41839 -18293,-86022 -18293,-131678 0,-39459 4800,-77821 13795,-114520l129449 0c14211,-39496 35150,-75779 61493,-107414l-62211 -107754c30274,-31257 65348,-58848 104882,-81714 34205,-19729 69808,-34734 106091,-45316l64063 110967c20259,-3553 41159,-5443 62438,-5443zm0 223446c74230,0 134400,60170 134400,134362 0,74230 -60170,134400 -134400,134400 -74230,0 -134400,-60170 -134400,-134400 0,-74192 60170,-134362 134400,-134362z"/>
</svg>
