<?xml version="1.0" encoding="UTF-8"?>
<!DOCTYPE svg PUBLIC "-//W3C//DTD SVG 1.1//EN" "http://www.w3.org/Graphics/SVG/1.1/DTD/svg11.dtd">
<!-- Creator: CorelDRAW X7 -->
<svg xmlns="http://www.w3.org/2000/svg" xml:space="preserve" width="24px" height="24px" version="1.1" style="shape-rendering:geometricPrecision; text-rendering:geometricPrecision; image-rendering:optimizeQuality; fill-rule:evenodd; clip-rule:evenodd"
viewBox="0 0 24000 24000"
 xmlns:xlink="http://www.w3.org/1999/xlink">
 <defs>
  <style type="text/css">
   <![CDATA[
    .str0 {stroke:#5D5C5C;stroke-width:1499.72}
    .str1 {stroke:#5D5C5C;stroke-width:999.685;stroke-linejoin:round}
    .fil0 {fill:none}
    .fil1 {fill:white}
   ]]>
  </style>
 </defs>
 <g id="Layer_x0020_1">
  <metadata id="CorelCorpID_0Corel-Layer"/>
  <rect class="fil0" width="24000" height="24000"/>
  <g id="_2590954182768">
   <rect class="fil0 str0" x="10500" y="4000" width="9234" height="15729" rx="1000" ry="1703"/>
   <rect class="fil1" x="9000" y="5328" width="2750" height="11313"/>
   <path class="fil0 str1" d="M9000 7407c220,0 436,20 645,58l642 -1114c363,106 719,256 1061,454 396,228 746,504 1049,817l-631 1093c257,313 462,670 602,1058l1294 0c90,367 138,751 138,1146 0,456 -64,898 -183,1316l-1264 0c-144,387 -353,742 -614,1052l658 1139c-273,262 -581,495 -923,692 -395,229 -810,394 -1232,501l-639 -1107c-196,34 -397,51 -603,51 -199,0 -394,-16 -583,-47l-637 1103c-422,-107 -837,-272 -1232,-501 -342,-197 -650,-430 -923,-692l649 -1124c-267,-313 -481,-673 -627,-1067l-1264 0c-119,-418 -183,-860 -183,-1316 0,-395 48,-779 138,-1146l1294 0c142,-394 352,-757 615,-1074l-622 -1077c303,-313 654,-589 1049,-817 342,-198 698,-348 1061,-454l640 1110c203,-35 412,-54 625,-54zm0 2234c742,0 1344,602 1344,1344 0,742 -602,1344 -1344,1344 -742,0 -1344,-602 -1344,-1344 0,-742 602,-1344 1344,-1344z"/>
  </g>
 </g>
</svg>
